<svg xmlns="http://www.w3.org/2000/svg" version="1.1" xmlns:xlink="http://www.w3.org/1999/xlink" xmlns:svgjs="http://svgjs.dev/svgjs" width="128" height="128" viewBox="0 0 128 128"><g transform="matrix(0.8046875,0,0,0.8046875,12.5,12.5)"><svg viewBox="0 0 225 225" data-background-color="#c9efc7" preserveAspectRatio="xMidYMid meet" height="128" width="128" xmlns="http://www.w3.org/2000/svg" xmlns:xlink="http://www.w3.org/1999/xlink"><g id="tight-bounds" transform="matrix(1,0,0,1,0,0)"><svg viewBox="0 0 225 225" height="225" width="225"><g><svg></svg></g><g><svg viewBox="0 0 225 225" height="225" width="225"><g><path d="M15.072 56.25l97.428-56.25 97.428 56.25 0 112.5-97.428 56.25-97.428-56.25zM20.522 165.603l91.978 53.104 91.978-53.104v-106.206l-91.978-53.104-91.978 53.104z" fill="#000000" fill-rule="nonzero" stroke="none" stroke-width="1" stroke-linecap="butt" stroke-linejoin="miter" stroke-miterlimit="10" stroke-dasharray="" stroke-dashoffset="0" font-family="none" font-weight="none" font-size="none" text-anchor="none" style="mix-blend-mode: normal" data-fill-palette-color="tertiary"></path></g><g transform="matrix(1,0,0,1,84.69,82.28125984251969)"><svg viewBox="0 0 55.62 60.43748031496063" height="60.43748031496063" width="55.62"><g><svg viewBox="0 0 55.62 60.43748031496063" height="60.43748031496063" width="55.62"><g><svg viewBox="0 0 55.62 60.43748031496063" height="60.43748031496063" width="55.62"><g><svg viewBox="0 0 55.62 60.43748031496063" height="60.43748031496063" width="55.62"><g><svg viewBox="0 0 55.62 60.43748031496063" height="60.43748031496063" width="55.62"><g transform="matrix(1,0,0,1,0,0)"><svg width="55.62" viewBox="2 -34.5 31.75 34.5" height="60.43748031496063" data-palette-color="#454545"><path d="M33.55-0.4L33.75-0.4 33.75 0 26.3 0 12.75-17.9 9.95-14.7 9.95-0.8 14.3-0.4 14.3 0 2 0 2-0.4 6.1-0.8 6.1-33.7 2-34.1 2-34.5 14.3-34.5 14.3-34.1 9.95-33.7 9.95-15.6 23.55-31.3Q24.35-32.25 24.35-32.85L24.35-32.85Q24.35-33.35 23.58-33.6 22.8-33.85 20.45-34.1L20.45-34.1 20.45-34.5 30.65-34.5 30.65-34.1Q27.75-33.6 26.73-33.15 25.7-32.7 24.55-31.4L24.55-31.4 15.4-20.9 29.85-2Q30.7-1.05 31.43-0.73 32.15-0.4 33.55-0.4L33.55-0.4Z" opacity="1" transform="matrix(1,0,0,1,0,0)" fill="#000000" class="undefined-text-0" data-fill-palette-color="primary" id="text-0"></path></svg></g></svg></g></svg></g></svg></g><g></g></svg></g></svg></g></svg></g><defs></defs></svg><rect width="225" height="225" fill="none" stroke="none" visibility="hidden"></rect></g></svg></g></svg>