<svg xmlns="http://www.w3.org/2000/svg" version="1.1" xmlns:xlink="http://www.w3.org/1999/xlink" xmlns:svgjs="http://svgjs.dev/svgjs" width="2000" height="1250" viewBox="0 0 2000 1250"><g transform="matrix(1,0,0,1,0,0)"><svg viewBox="0 0 576 360" data-background-color="#c9efc7" preserveAspectRatio="xMidYMid meet" height="1250" width="2000" xmlns="http://www.w3.org/2000/svg" xmlns:xlink="http://www.w3.org/1999/xlink"><g id="tight-bounds" transform="matrix(1,0,0,1,0,0)"><svg viewBox="0 0 576 360" height="360" width="576"><g><svg></svg></g><g><svg viewBox="0 0 576 360" height="360" width="576"><g><path xmlns="http://www.w3.org/2000/svg" d="M132.115 90l155.885-90 155.885 90v180l-155.885 90-155.885-90zM132.734 269.643l155.266 89.643 155.266-89.643v-179.286l-155.266-89.643-155.266 89.643z" fill="#000000" fill-rule="nonzero" stroke="none" stroke-width="1" stroke-linecap="butt" stroke-linejoin="miter" stroke-miterlimit="10" stroke-dasharray="" stroke-dashoffset="0" font-family="none" font-weight="none" font-size="none" text-anchor="none" style="mix-blend-mode: normal" data-fill-palette-color="tertiary"></path></g><g transform="matrix(1,0,0,1,172.8,99.08099999999999)"><svg viewBox="0 0 230.4 161.83800000000002" height="161.83800000000002" width="230.4"><g><svg viewBox="0 0 230.4 161.83800000000002" height="161.83800000000002" width="230.4"><g><svg viewBox="0 0 230.4 161.83800000000002" height="161.83800000000002" width="230.4"><g><svg viewBox="0 0 230.4 161.83800000000002" height="161.83800000000002" width="230.4"><g><svg viewBox="0 0 230.4 161.83800000000002" height="161.83800000000002" width="230.4"><g transform="matrix(1,0,0,1,60.89419920487315,42.77341758211051)"><svg viewBox="0 0 108.6116015902537 76.291164835779" height="76.291164835779" width="108.6116015902537"><g><circle r="38" cx="54.30580079512685" cy="38.1455824178895" fill="#000000" data-fill-palette-color="accent"></circle></g></svg></g><path d="M54.909 52.528L54.94 52.443 55.11 52.506 53.914 55.717 44.004 58.684 44.935 60.415 50.934 62.65 51.814 60.833 51.984 60.896 50.005 66.207 49.835 66.144 50.316 64.307 36.116 59.016 35.287 60.723 35.108 60.657 37.087 55.346 37.266 55.412 36.734 57.359 44.549 60.271 39.959 51.869C39.767 51.54 39.586 51.344 39.417 51.281V51.281C39.272 51.227 39.125 51.297 38.974 51.491 38.814 51.689 38.575 52.111 38.255 52.757V52.757L38.076 52.69 39.715 48.293 39.894 48.36C39.727 49.248 39.652 49.864 39.667 50.205 39.689 50.55 39.824 50.954 40.073 51.418V51.418L43.138 57.064 53.619 53.86C53.984 53.724 54.254 53.567 54.427 53.389 54.599 53.217 54.759 52.93 54.909 52.528ZM82.91 23.939L84.64 23.077 84.74 23.228 80.022 26.333 79.923 26.182 81.374 24.95 76.326 21.21 71.668 24.277 72.874 29.582C72.91 29.759 72.957 29.892 73.016 29.981V29.981C73.108 30.121 73.215 30.192 73.335 30.192 73.46 30.199 73.639 30.141 73.872 30.02V30.02L75.113 29.347 75.213 29.498 71.116 32.194 71.017 32.043 72.025 31.235C72.329 31.003 72.516 30.788 72.586 30.589 72.654 30.4 72.646 30.132 72.563 29.786V29.786L69.01 14.116 69.354 13.889ZM71.581 23.889L76.004 20.977 69.985 16.53 69.91 16.579ZM130.408 1.202L128.401 1.273 127.571 16.404 129.557 16.705 129.547 16.885 123.888 16.575 123.898 16.394 125.795 16.307 126.563 2.3 126.473 2.295 120.125 16.741 119.894 16.728 114.514 1.619 114.424 1.614 113.711 14.607C113.691 14.975 113.723 15.235 113.809 15.388 113.894 15.54 114.074 15.637 114.346 15.679V15.679L115.971 15.959 115.961 16.14 110.925 15.864 110.934 15.683 112.6 15.583C112.876 15.571 113.065 15.495 113.167 15.353 113.262 15.21 113.319 14.955 113.339 14.587V14.587L114.096 0.791C114 0.597 113.873 0.463 113.716 0.387 113.559 0.312 113.327 0.265 113.019 0.248V0.248L111.966 0.191 111.976 0 115.909 0.216 120.827 14.032 120.918 14.037 126.716 0.809 130.418 1.012ZM165.469 16.164L165.585 16.013 169.989 19.384 169.873 19.536 168.263 18.531 159.052 30.564 160.436 31.864 160.326 32.008 155.922 28.636 156.031 28.492 157.648 29.489 166.859 17.456ZM193.056 51.656L178.87 56.984 178.027 55.283 177.858 55.346 181.825 65.911 186.73 64.681 186.672 64.412 182.434 64.33C182.071 64.316 181.806 64.251 181.641 64.134 181.475 64.017 181.328 63.786 181.198 63.441V63.441L179.407 58.672 193.678 53.312 194.554 55.13 194.733 55.063 192.74 49.757 192.561 49.824ZM42.105 107.24C41.939 106.695 41.909 106.147 42.015 105.597 42.127 105.045 42.365 104.559 42.728 104.141V104.141L43.343 104.437C43.017 104.837 42.805 105.259 42.709 105.701 42.606 106.146 42.622 106.592 42.759 107.041V107.041C42.962 107.707 43.306 108.149 43.792 108.365 44.282 108.573 44.928 108.555 45.729 108.312V108.312L52.151 106.359 51.026 102.657 51.68 102.459 53.027 106.891 45.951 109.042C44.951 109.346 44.128 109.345 43.481 109.037 42.837 108.736 42.378 108.137 42.105 107.24ZM47.673 120.635L49.808 118.19 47.3 112.652 44.057 112.653 43.717 111.903 55.255 111.972 55.57 112.668 48.013 121.386ZM48.01 112.661L50.278 117.668 54.652 112.664ZM61.921 123.836L62.342 124.509 50.98 126.117 50.575 125.47 56.972 115.944 57.415 116.65 51.622 125.288ZM59.697 137.546L61.103 134.62 57.208 129.951 54.084 130.818 53.556 130.185 64.694 127.175 65.183 127.761 60.225 138.179ZM57.895 129.771L61.417 133.992 64.298 128.002ZM63.918 141.758C63.355 141.232 62.91 140.639 62.583 139.977 62.256 139.306 62.092 138.686 62.091 138.117V138.117L62.732 137.931C62.736 138.467 62.884 139.04 63.176 139.651 63.467 140.252 63.865 140.788 64.37 141.258V141.258C65.1 141.939 65.779 142.316 66.408 142.388 67.04 142.456 67.565 142.267 67.98 141.821V141.821C68.3 141.478 68.458 141.112 68.454 140.724 68.44 140.336 68.341 139.951 68.157 139.568 67.964 139.186 67.674 138.706 67.289 138.127V138.127C66.853 137.464 66.528 136.909 66.313 136.462 66.094 136.01 65.994 135.537 66.015 135.043 66.031 134.545 66.253 134.066 66.683 133.605V133.605C67.03 133.233 67.448 132.986 67.936 132.864 68.42 132.738 68.952 132.772 69.533 132.965 70.103 133.158 70.693 133.538 71.3 134.104V134.104C71.722 134.497 72.081 134.947 72.378 135.453 72.666 135.959 72.864 136.46 72.971 136.954V136.954L72.34 137.203C72.233 136.709 72.043 136.235 71.771 135.78 71.509 135.325 71.199 134.93 70.841 134.597V134.597C70.131 133.934 69.462 133.576 68.834 133.522 68.202 133.464 67.673 133.663 67.248 134.118V134.118C66.928 134.461 66.773 134.829 66.782 135.223 66.791 135.606 66.887 135.989 67.071 136.371 67.265 136.753 67.557 137.241 67.947 137.834V137.834C68.378 138.501 68.699 139.056 68.909 139.499 69.128 139.942 69.23 140.408 69.213 140.896 69.207 141.385 68.991 141.857 68.566 142.313V142.313C68.219 142.685 67.804 142.929 67.319 143.046 66.831 143.167 66.294 143.125 65.708 142.918 65.123 142.711 64.526 142.324 63.918 141.758ZM72.832 148.73C71.995 148.139 71.371 147.42 70.96 146.573 70.554 145.72 70.388 144.828 70.463 143.897 70.542 142.96 70.874 142.079 71.457 141.252V141.252C72.037 140.431 72.755 139.827 73.611 139.439 74.467 139.051 75.363 138.909 76.299 139.012 77.238 139.11 78.127 139.454 78.964 140.046V140.046C79.583 140.482 80.083 140.987 80.465 141.561 80.846 142.125 81.081 142.733 81.169 143.386V143.386L80.499 143.516C80.289 142.351 79.65 141.391 78.583 140.638V140.638C77.866 140.131 77.099 139.836 76.282 139.751 75.463 139.656 74.683 139.778 73.944 140.117 73.2 140.462 72.579 140.987 72.081 141.693V141.693C71.579 142.404 71.291 143.165 71.22 143.975 71.148 144.786 71.291 145.564 71.65 146.309 72.008 147.046 72.545 147.667 73.262 148.173V148.173C74.324 148.923 75.444 149.201 76.622 149.008V149.008L76.724 149.682C76.079 149.818 75.422 149.801 74.754 149.632 74.085 149.464 73.445 149.163 72.832 148.73ZM85.914 156L85.137 155.599 84.518 151.336C84.165 151.215 83.852 151.084 83.578 150.943V150.943L80.916 149.572 79.347 152.619 78.668 152.269 83.466 142.951 86.808 144.671C87.981 145.275 88.759 146.026 89.141 146.924 89.516 147.818 89.451 148.756 88.945 149.739V149.739C88.565 150.478 88.059 151.001 87.426 151.308 86.79 151.621 86.068 151.697 85.261 151.538V151.538ZM81.224 148.973L83.887 150.344C84.881 150.856 85.754 151.027 86.505 150.856 87.256 150.685 87.84 150.195 88.257 149.385V149.385C88.671 148.581 88.73 147.823 88.433 147.113 88.136 146.402 87.49 145.791 86.495 145.279V145.279L83.833 143.908ZM88.754 157.024L92.628 147.285 93.337 147.567 89.464 157.306ZM99.776 149.393C101.048 149.743 101.964 150.318 102.521 151.118 103.073 151.916 103.202 152.848 102.909 153.914V153.914C102.617 154.973 102.03 155.705 101.147 156.108 100.257 156.516 99.175 156.544 97.903 156.194V156.194L95.016 155.399 94.106 158.703 93.37 158.5 96.153 148.395ZM98.087 155.526C99.166 155.823 100.054 155.814 100.752 155.499 101.451 155.184 101.921 154.587 102.163 153.709V153.709C102.403 152.837 102.304 152.083 101.868 151.449 101.431 150.815 100.673 150.349 99.595 150.052V150.052L96.707 149.257 95.2 154.73ZM105.824 161.166L107.065 151.447 103.317 150.969 103.404 150.291 111.647 151.344 111.561 152.021 107.823 151.544 106.582 161.263ZM116.742 161.838L116.216 151.37 120.361 151.162C121.444 151.107 122.419 151.283 123.285 151.689 124.15 152.095 124.837 152.681 125.345 153.446 125.854 154.219 126.133 155.107 126.184 156.111V156.111C126.234 157.121 126.046 158.033 125.617 158.846 125.189 159.666 124.564 160.321 123.744 160.812 122.923 161.302 121.971 161.575 120.887 161.629V161.629ZM117.47 161.107L120.792 160.94C121.756 160.892 122.599 160.658 123.322 160.239 124.039 159.821 124.581 159.257 124.948 158.548 125.308 157.839 125.466 157.039 125.421 156.149V156.149C125.376 155.266 125.14 154.49 124.71 153.821 124.274 153.152 123.678 152.642 122.923 152.291 122.161 151.947 121.298 151.799 120.335 151.847V151.847L117.013 152.014ZM130.235 159.81L136.574 158.51 136.713 159.189 129.626 160.643 127.52 150.376 134.381 148.968 134.518 149.638 128.405 150.892 129.237 154.947 134.71 153.825 134.846 154.484 129.372 155.607ZM143.19 145.58L143.934 145.303 143.219 156.756 142.503 157.023 134.462 148.836 135.244 148.545 142.536 155.96ZM149.876 153.187L155.631 150.227 155.948 150.843 149.514 154.152 144.72 144.832 150.949 141.629 151.261 142.236 145.712 145.09 147.605 148.772 152.574 146.217 152.882 146.815 147.913 149.371ZM158.652 148.926L152.659 140.328 153.285 139.891 158.882 147.921 163.836 144.468 164.233 145.036ZM169.173 140.397C168.421 141.103 167.584 141.572 166.662 141.803 165.744 142.03 164.835 142.011 163.933 141.745 163.032 141.48 162.24 140.983 161.556 140.255V140.255C160.873 139.527 160.428 138.705 160.22 137.789 160.017 136.877 160.055 135.968 160.335 135.062 160.624 134.157 161.145 133.351 161.897 132.645V132.645C162.645 131.943 163.479 131.477 164.401 131.245 165.319 131.009 166.226 131.026 167.122 131.296 168.024 131.562 168.819 132.061 169.506 132.794V132.794C170.199 133.531 170.649 134.358 170.857 135.275 171.065 136.182 171.024 137.088 170.735 137.994 170.441 138.894 169.92 139.695 169.173 140.397ZM168.692 139.884C169.332 139.283 169.775 138.596 170.022 137.822 170.26 137.047 170.29 136.262 170.111 135.464 169.928 134.672 169.538 133.958 168.942 133.323V133.323C168.351 132.693 167.663 132.259 166.879 132.021 166.095 131.792 165.311 131.774 164.528 131.968 163.735 132.16 163.018 132.557 162.379 133.158V133.158C161.734 133.763 161.29 134.455 161.047 135.234 160.795 136.013 160.761 136.799 160.944 137.591 161.132 138.389 161.522 139.102 162.113 139.732V139.732C162.709 140.367 163.397 140.802 164.176 141.035 164.956 141.268 165.744 141.286 166.542 141.088 167.33 140.891 168.047 140.489 168.692 139.884ZM169.194 124.658C170.009 123.62 170.893 122.998 171.846 122.792 172.796 122.592 173.705 122.833 174.574 123.516V123.516C175.439 124.194 175.886 125.018 175.917 125.988 175.95 126.967 175.558 127.975 174.743 129.013V129.013L172.895 131.369 175.59 133.485 175.119 134.085 166.874 127.615ZM174.198 128.585C174.889 127.705 175.224 126.882 175.203 126.117 175.182 125.351 174.814 124.687 174.097 124.124V124.124C173.385 123.566 172.653 123.366 171.899 123.523 171.145 123.681 170.422 124.2 169.732 125.08V125.08L167.883 127.436 172.349 130.941ZM181.364 124.07L184.615 118.475 185.215 118.823 181.58 125.079 172.518 119.814 176.036 113.758 176.627 114.101 173.492 119.497 177.072 121.577 179.879 116.746 180.461 117.084 177.654 121.915ZM189.503 108.152L189.176 108.962 184.988 109.972C184.9 110.333 184.798 110.657 184.683 110.943V110.943L183.563 113.72 186.741 115.002 186.456 115.71 176.735 111.791 178.141 108.305C178.634 107.081 179.31 106.238 180.168 105.775 181.024 105.318 181.965 105.296 182.99 105.71V105.71C183.761 106.02 184.328 106.477 184.692 107.078 185.062 107.683 185.205 108.394 185.121 109.212V109.212ZM182.939 113.468L184.059 110.691C184.477 109.654 184.567 108.769 184.327 108.037 184.088 107.304 183.546 106.768 182.701 106.427V106.427C181.862 106.089 181.102 106.101 180.422 106.462 179.742 106.823 179.193 107.523 178.774 108.56V108.56L177.655 111.338ZM36.501 84.398C36.501 80.968 39.282 78.187 42.712 78.187 46.142 78.187 48.923 80.968 48.923 84.398 48.923 87.829 46.142 90.609 42.712 90.609 39.282 90.609 36.501 87.829 36.501 84.398ZM182.87 84.398C182.87 80.968 185.651 78.187 189.081 78.187 192.511 78.187 195.292 80.968 195.292 84.398 195.292 87.829 192.511 90.609 189.081 90.609 185.651 90.609 182.87 87.829 182.87 84.398Z" fill="#000000" data-fill-palette-color="primary"></path></svg></g></svg></g></svg></g><g></g></svg></g></svg></g></svg></g><defs></defs></svg><rect width="576" height="360" fill="none" stroke="none" visibility="hidden"></rect></g></svg></g></svg>